<?xml version="1.0" encoding="UTF-8"?>
<svg width="39px" height="50px" viewBox="0 0 39 50" version="1.1" xmlns="http://www.w3.org/2000/svg" xmlns:xlink="http://www.w3.org/1999/xlink">
    <!-- Generator: Sketch 44.1 (41455) - http://www.bohemiancoding.com/sketch -->
    <title>Tilda_Icons_24fn_security</title>
    <desc>Created with Sketch.</desc>
    <defs></defs>
    <g id="Page-1" stroke="none" stroke-width="1" fill="none" fill-rule="evenodd">
        <g id="Landing" transform="translate(-260.000000, -3067.000000)" fill-rule="nonzero" fill="#000000">
            <g id="Tilda_Icons_24fn_security" transform="translate(260.000000, 3067.000000)">
                <path d="M37.6682468,7.92277778 C37.6102922,7.90277778 37.5495779,7.88666667 37.4861039,7.88055556 C30.9422078,7.22166667 25.6876623,5.76333333 19.7227597,0.536666667 C19.3882792,0.244444444 18.8821429,0.279444444 18.5912662,0.615555556 C18.5747078,0.634444444 18.5697403,0.658888889 18.5553896,0.678888889 C12.6385065,5.82444444 7.4087987,7.27166667 0.906850649,7.92555556 C0.891396104,7.92722222 0.877597403,7.93222222 0.862694805,7.93444444 C0.837305195,7.93833333 0.812467532,7.94333333 0.788181818,7.94944444 C0.761136364,7.95666667 0.735194805,7.96444444 0.709253247,7.97388889 C0.685519481,7.98277778 0.66288961,7.99222222 0.64025974,8.00333333 C0.615974026,8.015 0.59224026,8.02777778 0.56961039,8.04222222 C0.548084416,8.05555556 0.527662338,8.06944444 0.507792208,8.08444444 C0.486818182,8.1 0.4675,8.11666667 0.448181818,8.13388889 C0.428863636,8.15166667 0.410649351,8.17 0.392987013,8.19 C0.376980519,8.20833333 0.361525974,8.22666667 0.346623377,8.24611111 C0.330064935,8.26833333 0.31461039,8.29166667 0.30025974,8.31555556 C0.288116883,8.33555556 0.27762987,8.35555556 0.267142857,8.37666667 C0.254448052,8.40277778 0.243409091,8.42888889 0.234025974,8.45611111 C0.226298701,8.47833333 0.219123377,8.50055556 0.213603896,8.52333333 C0.206428571,8.55166667 0.200357143,8.58 0.195941558,8.60944444 C0.19262987,8.63333333 0.18987013,8.65722222 0.188766234,8.68166667 C0.187662338,8.69777778 0.183798701,8.71277778 0.183798701,8.72888889 L0.183798701,29.4822222 C0.183798701,29.5538889 0.193181818,29.6244444 0.211948052,29.6933333 C3.79905844,43.0072222 18.2700325,49.3344444 18.8843506,49.5966667 C18.9848052,49.6394444 19.0913312,49.6611111 19.1978571,49.6611111 C19.3032792,49.6611111 19.4092532,49.64 19.5086039,49.5983333 C20.1295455,49.335 34.7672078,43.0088889 38.3537662,29.6933333 C38.3653571,29.6511111 38.3730844,29.6083333 38.3775,29.5644444 L38.4475974,28.8733333 C38.4503571,28.8461111 38.452013,28.8183333 38.452013,28.7916667 L38.452013,8.72833333 C38.452013,8.28888889 38.1026299,7.93277778 37.6682468,7.92277778 Z M36.7884416,29.3344444 C33.6605519,40.8044444 21.3283766,46.9794444 19.199513,47.9688889 C17.0894156,46.9783333 4.93717532,40.8294444 1.78775974,29.3738889 L1.78775974,9.45222222 C8.1324026,8.74611111 13.365974,7.19055556 19.2226948,2.22166667 C25.1335065,7.21666667 30.4128896,8.74111111 36.8480519,9.43444444 L36.8480519,28.75 L36.7884416,29.3344444 Z" id="Shape"></path>
                <path d="M23.8005519,20.7194444 C23.8005519,21.1655556 24.1593182,21.5266667 24.6025325,21.5266667 C25.0457468,21.5266667 25.404513,21.1655556 25.404513,20.7194444 C25.404513,18.1411111 23.0979221,16.0094444 20.1212662,15.6794444 L20.1212662,11.5594444 C20.1212662,11.1133333 19.7625,10.7522222 19.3192857,10.7522222 C18.8760714,10.7522222 18.5173052,11.1133333 18.5173052,11.5594444 L18.5173052,15.6794444 C15.5389935,16.0094444 13.2318506,18.1411111 13.2318506,20.7194444 C13.2318506,23.2966667 15.5395455,25.4272222 18.5173052,25.7572222 L18.5173052,32.6988889 C16.4276299,32.4055556 14.8358117,30.9861111 14.8358117,29.2805556 C14.8358117,28.8344444 14.4770455,28.4733333 14.0338312,28.4733333 C13.5906169,28.4733333 13.2318506,28.8344444 13.2318506,29.2805556 C13.2318506,31.8611111 15.5395455,33.9944444 18.5173052,34.3227778 L18.5173052,38.4405556 C18.5173052,38.8866667 18.8760714,39.2477778 19.3192857,39.2477778 C19.7625,39.2477778 20.1212662,38.8866667 20.1212662,38.4405556 L20.1212662,34.3216667 C23.098474,33.99 25.404513,31.8583333 25.404513,29.2805556 C25.404513,26.7038889 23.098474,24.5727778 20.1212662,24.2416667 L20.1212662,17.3033333 C22.2103896,17.5977778 23.8005519,19.0155556 23.8005519,20.7194444 Z M14.8358117,20.7194444 C14.8358117,19.0155556 16.4270779,17.5977778 18.5173052,17.3033333 L18.5173052,24.1327778 C16.4270779,23.8388889 14.8358117,22.4216667 14.8358117,20.7194444 Z M23.8005519,29.2805556 C23.8005519,30.9833333 22.2103896,32.4022222 20.1212662,32.6977778 L20.1212662,25.8655556 C22.2103896,26.1611111 23.8005519,27.5783333 23.8005519,29.2805556 Z" id="Shape"></path>
            </g>
        </g>
    </g>
</svg>