<?xml version="1.0" encoding="UTF-8"?>
<svg width="55px" height="50px" viewBox="0 0 55 50" version="1.1" xmlns="http://www.w3.org/2000/svg" xmlns:xlink="http://www.w3.org/1999/xlink">
    <!-- Generator: Sketch 44.1 (41455) - http://www.bohemiancoding.com/sketch -->
    <title>Tilda_Icons_24fn_payment</title>
    <desc>Created with Sketch.</desc>
    <defs></defs>
    <g id="Page-1" stroke="none" stroke-width="1" fill="none" fill-rule="evenodd">
        <g id="Landing" transform="translate(-238.000000, -3147.000000)" fill-rule="nonzero" fill="#000000">
            <g id="Tilda_Icons_24fn_payment" transform="translate(238.000000, 3147.000000)">
                <path d="M53.7615222,30.2746835 C52.8887949,29.0360759 51.2987315,28.6037975 49.9553911,29.1126582 C49.9002114,28.5689873 49.7207188,28.0443038 49.3978858,27.585443 C48.3735729,26.1240506 46.3446089,25.7670886 44.8997886,26.7734177 L44.3638478,27.1227848 C44.2972516,26.6107595 44.1234672,26.1164557 43.817759,25.6810127 C42.7909091,24.2221519 40.7625793,23.8651899 39.294926,24.8873418 C39.2784355,24.8987342 39.2663848,24.9126582 39.2511628,24.9253165 C39.2448203,24.9303797 39.2372093,24.9310127 39.2308668,24.9367089 C34.9693446,28.4955696 29.7665962,32.1759494 28.4353066,32.1759494 C27.4496829,32.1759494 24.4496829,30.4993671 22.0401691,29.1518987 C18.9678647,27.4348101 16.0661734,25.8126582 14.4012685,25.6841772 C11.2750529,25.4575949 1.73340381,30.9848101 0.653911205,31.6170886 C0.215010571,31.8740506 0.0678646934,32.4373418 0.325369979,32.8753165 C0.582875264,33.3126582 1.14735729,33.4601266 1.58625793,33.2031646 C5.47167019,30.9272152 12.332981,27.364557 14.2591966,27.5189873 C15.5188161,27.6158228 18.5048626,29.2848101 21.1389006,30.7575949 C24.6139535,32.7 26.8617336,33.8987342 28.248203,33.9968354 C28.3084567,34.0094937 28.3712474,34.0158228 28.4353066,34.0158228 L34.7587738,34.0158228 C35.9118393,34.0158228 36.8505285,34.9525316 36.8505285,36.1044304 C36.8505285,37.2563291 35.9124736,38.1943038 34.7587738,38.1943038 C34.7498943,38.1943038 34.741649,38.1968354 34.7327696,38.1968354 C34.7194503,38.1974684 34.7073996,38.1949367 34.6940803,38.1962025 C34.6319239,38.2012658 28.4505285,38.6303797 25.9014799,38.2063291 C23.5128964,37.8088608 20.4602537,35.1044304 20.4298097,35.0772152 C20.0505285,34.7373418 19.4676533,34.7702532 19.1289641,35.1487342 C18.7896406,35.5272152 18.8213531,36.1082278 19.2,36.4468354 C19.3408034,36.5727848 22.6801268,39.535443 25.5983087,40.0208861 C26.5515856,40.1791139 27.915222,40.2310127 29.3029598,40.2310127 C31.9338266,40.2310127 34.6515856,40.043038 34.8234672,40.0310127 C34.8241015,40.0310127 34.8247357,40.0310127 34.82537,40.0310127 C36.9640592,39.9949367 38.6936575,38.2493671 38.6936575,36.1050633 C38.6936575,33.9392405 36.9285412,32.1772152 34.7587738,32.1772152 L32.5991543,32.1772152 C35.7133192,30.2151899 39.3031712,27.2740506 40.3642706,26.3892405 C40.9991543,25.9575949 41.8680761,26.1126582 42.3082452,26.7379747 C42.5232558,27.0443038 42.6057082,27.4164557 42.5397463,27.7860759 C42.4737844,28.1556962 42.269556,28.4765823 41.9632135,28.6911392 C41.9473573,28.7025316 41.9346723,28.7164557 41.9194503,28.728481 C41.8883721,28.7531646 41.8566596,28.7772152 41.8300211,28.8050633 C41.8135307,28.8221519 41.8002114,28.8411392 41.7849894,28.8588608 C41.7615222,28.8873418 41.7374207,28.9151899 41.717759,28.9455696 C41.7044397,28.9664557 41.6942918,28.9886076 41.6828753,29.0101266 C41.6663848,29.0405063 41.64926,29.0702532 41.6365751,29.1025316 C41.6270613,29.1265823 41.6213531,29.1518987 41.6137421,29.1765823 C41.6042283,29.2082278 41.5934461,29.2386076 41.5871036,29.2708861 C41.5820296,29.2974684 41.5807611,29.3246835 41.5782241,29.3512658 C41.5750529,29.3829114 41.5706131,29.4139241 41.5706131,29.4455696 C41.5706131,29.4740506 41.5750529,29.5025316 41.5775899,29.5310127 C41.5807611,29.5613924 41.5820296,29.5911392 41.5877378,29.6208861 C41.5934461,29.6512658 41.6042283,29.6810127 41.6137421,29.7113924 C41.6219873,29.7386076 41.6289641,29.7658228 41.6397463,29.793038 C41.6524313,29.8240506 41.6701903,29.8531646 41.6866808,29.8829114 C41.6980973,29.9037975 41.7063425,29.9259494 41.7196617,29.9468354 C41.7221987,29.9506329 41.72537,29.9537975 41.727907,29.9575949 C41.7310782,29.9620253 41.7323467,29.9670886 41.735518,29.9708861 C41.7450317,29.9841772 41.7577167,29.9936709 41.7672304,30.0063291 C41.7983087,30.0468354 41.8312896,30.0841772 41.8680761,30.1183544 C41.8864693,30.135443 41.9054968,30.15 41.9245243,30.1651899 C41.9600423,30.1924051 41.9961945,30.2170886 42.0342495,30.2392405 C42.055814,30.2518987 42.0767442,30.2639241 42.0995772,30.2740506 C42.1414376,30.2936709 42.1852008,30.3088608 42.2289641,30.321519 C42.24926,30.3272152 42.2682875,30.335443 42.2885835,30.3398734 C42.3520085,30.3537975 42.4167019,30.3620253 42.4820296,30.3626582 C42.4852008,30.3626582 42.4877378,30.3639241 42.4902748,30.3639241 C42.4985201,30.3639241 42.5067653,30.3601266 42.5150106,30.3601266 C42.5854123,30.3582278 42.6551797,30.3468354 42.7243129,30.328481 C42.7452431,30.3227848 42.7661734,30.3177215 42.7871036,30.3107595 C42.8581395,30.2860759 42.927907,30.2563291 42.9938689,30.2132911 L45.9298097,28.2981013 C46.5665962,27.8563291 47.4437632,28.0094937 47.8871036,28.6424051 C48.1021142,28.9474684 48.1852008,29.3183544 48.1198732,29.6860759 C48.0545455,30.0556962 47.8490486,30.3772152 47.5414376,30.5924051 L46.5989429,31.2512658 C46.182241,31.543038 46.0813953,32.1164557 46.3731501,32.5322785 C46.5526427,32.7873418 46.838055,32.9240506 47.1285412,32.9240506 C47.3112051,32.9240506 47.4957717,32.8702532 47.656871,32.7575949 L48.5841438,32.1088608 L50.2934461,30.9905063 C50.9289641,30.5481013 51.8073996,30.7012658 52.2501057,31.3303797 C52.6940803,31.9651899 52.538055,32.8424051 51.902537,33.2848101 C51.9019027,33.285443 51.9012685,33.2860759 51.9,33.2867089 C41.8972516,40.2943038 30.551797,47.5556962 28.8818182,47.5759494 C27.640592,47.5759494 24.8980973,45.9443038 22.4778013,44.5050633 C19.7473573,42.8810127 17.1684989,41.3468354 15.3469345,41.1044304 C11.710148,40.6227848 6.11035941,44.828481 5.48372093,45.3101266 C5.08033827,45.6196203 5.00549683,46.1968354 5.31501057,46.5993671 C5.62515856,47.0025316 6.20422833,47.0772152 6.60761099,46.7677215 C8.14312896,45.5905063 12.6615222,42.6018987 15.1033827,42.928481 C16.5494715,43.1208861 19.197463,44.6955696 21.5340381,46.085443 C24.4135307,47.7981013 27.1325581,49.4158228 28.8811839,49.4158228 C31.9300211,49.4158228 49.47463,37.2335443 52.9610994,34.7917722 C53.0137421,34.7550633 53.0606765,34.7139241 53.1031712,34.6689873 C54.4408034,33.614557 54.7509514,31.6911392 53.7615222,30.2746835 Z" id="Shape"></path>
                <path d="M21.1997886,13.3822785 C24.8955603,13.3822785 27.9019027,10.3822785 27.9019027,6.6943038 C27.9019027,3.00632911 24.894926,0.00632911392 21.1997886,0.00632911392 C17.5046512,0.00632911392 14.4976744,3.00632911 14.4976744,6.6943038 C14.4976744,10.3822785 17.5040169,13.3822785 21.1997886,13.3822785 Z M21.1997886,1.84556962 C23.8794926,1.84556962 26.0587738,4.02088608 26.0587738,6.6943038 C26.0587738,9.36772152 23.8788584,11.543038 21.1997886,11.543038 C18.5207188,11.543038 16.3408034,9.36772152 16.3408034,6.6943038 C16.3408034,4.02088608 18.5207188,1.84556962 21.1997886,1.84556962 Z" id="Shape"></path>
                <path d="M37.772093,11.8329114 C40.6116279,11.8329114 42.9215645,9.5278481 42.9215645,6.6943038 C42.9215645,3.86075949 40.6109937,1.5556962 37.772093,1.5556962 C34.9331924,1.5556962 32.6226216,3.86075949 32.6226216,6.6943038 C32.6226216,9.5278481 34.9325581,11.8329114 37.772093,11.8329114 Z M37.772093,3.39493671 C39.594926,3.39493671 41.0784355,4.87468354 41.0784355,6.6943038 C41.0784355,8.51392405 39.594926,9.99367089 37.772093,9.99367089 C35.94926,9.99367089 34.4657505,8.51392405 34.4657505,6.6943038 C34.4657505,4.87468354 35.94926,3.39493671 37.772093,3.39493671 Z" id="Shape"></path>
                <path d="M22.538055,21.0056962 C22.538055,24.693038 25.5443975,27.693038 29.2389006,27.693038 C32.9340381,27.693038 35.9403805,24.693038 35.9403805,21.0056962 C35.9403805,17.3183544 32.9340381,14.3183544 29.2389006,14.3183544 C25.5443975,14.3183544 22.538055,17.3183544 22.538055,21.0056962 Z M29.2395349,16.1575949 C31.9186047,16.1575949 34.0978858,18.3322785 34.0978858,21.0056962 C34.0978858,23.6791139 31.9179704,25.8537975 29.2395349,25.8537975 C26.5610994,25.8537975 24.3818182,23.6791139 24.3818182,21.0056962 C24.3818182,18.3322785 26.5604651,16.1575949 29.2395349,16.1575949 Z" id="Shape"></path>
            </g>
        </g>
    </g>
</svg>