<?xml version="1.0" encoding="UTF-8"?>
<svg width="54px" height="50px" viewBox="0 0 54 50" version="1.1" xmlns="http://www.w3.org/2000/svg" xmlns:xlink="http://www.w3.org/1999/xlink">
    <!-- Generator: Sketch 44.1 (41455) - http://www.bohemiancoding.com/sketch -->
    <title>Tilda_Icons_24fn_mobilebank</title>
    <desc>Created with Sketch.</desc>
    <defs></defs>
    <g id="Page-1" stroke="none" stroke-width="1" fill="none" fill-rule="evenodd">
        <g id="Landing" transform="translate(-243.000000, -3257.000000)" fill-rule="nonzero" fill="#000000">
            <g id="Tilda_Icons_24fn_mobilebank" transform="translate(243.000000, 3257.000000)">
                <path d="M50.7460125,0.372093023 L37.1181452,0.372093023 C35.4244176,0.372093023 34.046371,1.74767442 34.046371,3.43837209 L34.046371,6.06627907 C34.046371,6.06802326 34.0457885,6.06976744 34.0457885,6.07209302 C34.0457885,6.0744186 34.046371,6.0755814 34.046371,6.07790698 L34.046371,23.7790698 C34.046371,23.780814 34.0457885,23.7825581 34.0457885,23.7848837 C34.0457885,23.7872093 34.046371,23.7883721 34.046371,23.7906977 L34.046371,26.3953488 C34.046371,28.0866279 35.4244176,29.4627907 37.1181452,29.4627907 L50.7460125,29.4627907 C52.4420699,29.4627907 53.8224462,28.0866279 53.8224462,26.3953488 L53.8224462,3.43837209 C53.8224462,1.74767442 52.4420699,0.372093023 50.7460125,0.372093023 Z M35.7383513,6.91686047 L52.1298835,6.91686047 L52.1298835,22.9401163 L35.7383513,22.9401163 L35.7383513,6.91686047 Z M37.1181452,2.06162791 L50.7460125,2.06162791 C51.5095878,2.06162791 52.1298835,2.67906977 52.1298835,3.43837209 L52.1298835,5.22732558 L35.7383513,5.22732558 L35.7383513,3.43837209 C35.7383513,2.67906977 36.3574821,2.06162791 37.1181452,2.06162791 Z M50.7460125,27.7738372 L37.1181452,27.7738372 C36.3574821,27.7738372 35.7389337,27.155814 35.7389337,26.3959302 L35.7389337,24.6302326 L52.1304659,24.6302326 L52.1304659,26.3953488 C52.1298835,27.1552326 51.5095878,27.7738372 50.7460125,27.7738372 Z" id="Shape"></path>
                <path d="M48.1926075,33.3232558 C47.7249104,33.3232558 47.3463262,33.7011628 47.3463262,34.1680233 L47.3463262,45.1616279 L29.5883961,45.1616279 C29.1206989,45.1616279 28.7421147,45.5395349 28.7421147,46.0063953 C28.7421147,46.4732558 29.1206989,46.8511628 29.5883961,46.8511628 L48.1926075,46.8511628 C48.6603047,46.8511628 49.0388889,46.4732558 49.0388889,46.0063953 L49.0388889,34.1686047 C49.0388889,33.7017442 48.6603047,33.3232558 48.1926075,33.3232558 Z" id="Shape"></path>
                <path d="M9.23803763,26.3 C9.70573477,26.3 10.084319,25.922093 10.084319,25.4552326 L10.084319,7.96627907 L28.9267473,7.96627907 C29.3944444,7.96627907 29.7730287,7.58837209 29.7730287,7.12151163 C29.7730287,6.65465116 29.3944444,6.27674419 28.9267473,6.27674419 L9.23803763,6.27674419 C8.7703405,6.27674419 8.39175627,6.65465116 8.39175627,7.12151163 L8.39175627,25.4552326 C8.39175627,25.922093 8.7703405,26.3 9.23803763,26.3 Z" id="Shape"></path>
                <path d="M23.5782258,38.802907 C23.1105287,38.802907 22.7319444,39.180814 22.7319444,39.6476744 L22.7319444,47.9383721 L18.3019265,47.9383721 L18.3019265,39.6476744 C18.3019265,39.180814 17.9233423,38.802907 17.4556452,38.802907 C16.987948,38.802907 16.6093638,39.180814 16.6093638,39.6476744 L16.6093638,47.9383721 L11.124552,47.9383721 L11.124552,39.6476744 C11.124552,39.180814 10.7459677,38.802907 10.2782706,38.802907 C9.81057348,38.802907 9.43198925,39.180814 9.43198925,39.6476744 L9.43198925,47.9383721 L4.96586022,47.9383721 L4.96586022,39.6476744 C4.96586022,39.180814 4.58727599,38.802907 4.11957885,38.802907 C3.65188172,38.802907 3.27329749,39.180814 3.27329749,39.6476744 L3.27329749,48.7831395 C3.27329749,49.25 3.65188172,49.627907 4.11957885,49.627907 L23.5782258,49.627907 C24.0459229,49.627907 24.4245072,49.25 24.4245072,48.7831395 L24.4245072,39.6476744 C24.4245072,39.1813953 24.0459229,38.802907 23.5782258,38.802907 Z" id="Shape"></path>
                <path d="M27.7589606,36.1912791 L14.5644265,28.6651163 C14.3052419,28.5168605 13.9866487,28.5168605 13.7268817,28.6639535 L0.446729391,36.1901163 C0.167741935,36.3482558 0.016890681,36.6412791 0.0221326165,36.9401163 C0.0215501792,36.9534884 0.0180555556,36.9662791 0.0180555556,36.9802326 C0.0180555556,37.447093 0.396639785,37.825 0.864336918,37.825 L26.9429659,37.825 C27.053629,37.825 27.1584677,37.8023256 27.2557348,37.7639535 C27.5772401,37.7953488 27.903405,37.6424419 28.0740591,37.3436047 C28.3058692,36.9389535 28.1643369,36.4226744 27.7589606,36.1912791 Z M14.1433244,30.3703488 L24.249776,36.1354651 L3.97105735,36.1354651 L14.1433244,30.3703488 Z" id="Shape"></path>
            </g>
        </g>
    </g>
</svg>