<?xml version="1.0" encoding="UTF-8"?>
<svg width="43px" height="60px" viewBox="0 0 43 60" version="1.1" xmlns="http://www.w3.org/2000/svg" xmlns:xlink="http://www.w3.org/1999/xlink">
    <!-- Generator: Sketch 44.1 (41455) - http://www.bohemiancoding.com/sketch -->
    <title>Tilda_Icons_5ev_schedule</title>
    <desc>Created with Sketch.</desc>
    <defs></defs>
    <g id="Page-1" stroke="none" stroke-width="1" fill="none" fill-rule="evenodd">
        <g id="Landing" transform="translate(-379.000000, -1647.000000)" fill-rule="nonzero" fill="#000000">
            <g id="Tilda_Icons_5ev_schedule" transform="translate(379.000000, 1647.000000)">
                <path d="M35.7906977,0.418604651 L6.97674419,0.418604651 C3.27906977,0.418604651 0.209302326,3.41860465 0.209302326,7.11627907 L0.209302326,53.3023256 C0.209302326,57 3.20930233,60 6.97674419,60 L35.7906977,60 C39.4883721,60 42.5581395,57 42.5581395,53.3023256 L42.5581395,7.11627907 C42.5581395,3.41860465 39.5581395,0.418604651 35.7906977,0.418604651 Z M40.4651163,53.3023256 C40.4651163,55.8837209 38.372093,57.9069767 35.7906977,57.9069767 L6.97674419,57.9069767 C4.39534884,57.9069767 2.30232558,55.8139535 2.30232558,53.3023256 L2.30232558,7.11627907 C2.30232558,4.53488372 4.39534884,2.51162791 6.97674419,2.51162791 L35.7906977,2.51162791 C38.372093,2.51162791 40.4651163,4.60465116 40.4651163,7.11627907 L40.4651163,53.3023256 Z" id="Shape"></path>
                <path d="M29.9302326,7.04651163 L12.6976744,7.04651163 C12.1395349,7.04651163 11.6511628,7.53488372 11.6511628,8.09302326 C11.6511628,8.65116279 12.1395349,9.13953488 12.6976744,9.13953488 L29.9302326,9.13953488 C30.4883721,9.13953488 30.9767442,8.65116279 30.9767442,8.09302326 C30.9767442,7.53488372 30.4883721,7.04651163 29.9302326,7.04651163 Z" id="Shape"></path>
                <path d="M21.3488372,47.0232558 C19.3953488,47.0232558 17.8604651,48.627907 17.8604651,50.5116279 C17.8604651,51.4186047 18.2093023,52.3255814 18.9069767,52.9534884 C19.5348837,53.5813953 20.4418605,53.9302326 21.3488372,53.9302326 C21.3488372,53.9302326 21.3488372,53.9302326 21.3488372,53.9302326 C23.3023256,53.9302326 24.8372093,52.3255814 24.8372093,50.4418605 C24.8372093,48.5581395 23.3023256,47.0232558 21.3488372,47.0232558 Z M21.4186047,51.9069767 C21.4186047,51.9069767 21.4186047,51.9069767 21.4186047,51.9069767 C21.0697674,51.9069767 20.7209302,51.7674419 20.4418605,51.4883721 C20.1627907,51.2093023 20.0232558,50.8604651 20.0232558,50.5116279 C20.0232558,49.744186 20.6511628,49.1162791 21.4186047,49.1162791 C21.4186047,49.1162791 21.4186047,49.1162791 21.4186047,49.1162791 C22.1860465,49.1162791 22.8139535,49.744186 22.8139535,50.5116279 C22.8139535,51.2790698 22.1860465,51.9069767 21.4186047,51.9069767 Z" id="Shape"></path>
            </g>
        </g>
    </g>
</svg>