<?xml version="1.0" encoding="UTF-8"?>
<svg width="96px" height="68px" viewBox="0 0 96 68" version="1.1" xmlns="http://www.w3.org/2000/svg" xmlns:xlink="http://www.w3.org/1999/xlink">
    <!-- Generator: Sketch 46.2 (44496) - http://www.bohemiancoding.com/sketch -->
    <title>Tilda_Icons_10cw_bubbles</title>
    <desc>Created with Sketch.</desc>
    <defs></defs>
    <g id="Page-1" stroke="none" stroke-width="1" fill="none" fill-rule="evenodd">
        <g id="Landing" transform="translate(-992.000000, -2879.000000)">
            <g id="Tilda_Icons_10cw_bubbles" transform="translate(992.000000, 2879.000000)">
                <path d="M90.016,0.026 L53.518,0.026 C50.661,0.026 48.337,2.35 48.337,5.207 L48.337,9.561 L7.46,9.561 C3.791,9.561 0.806,12.546 0.806,16.216 L0.806,46.939 C0.806,50.607 3.791,53.591 7.46,53.591 L13.851,53.591 L13.851,66.475 C13.851,67.069 14.201,67.606 14.744,67.847 C14.939,67.933 15.145,67.975 15.35,67.975 C15.716,67.975 16.078,67.841 16.359,67.585 L31.762,53.591 L58.566,53.591 C62.234,53.591 65.219,50.607 65.219,46.939 L65.219,32.329 L72.492,32.329 L83.369,42.21 C83.651,42.466 84.012,42.6 84.378,42.6 C84.583,42.6 84.79,42.558 84.985,42.472 C85.528,42.232 85.878,41.694 85.878,41.1 L85.878,32.329 L90.015,32.329 C92.87,32.329 95.193,30.004 95.193,27.147 L95.193,5.207 C95.194,2.35 92.872,0.026 90.016,0.026 Z M62.22,46.938 C62.22,48.952 60.581,50.59 58.567,50.59 L31.183,50.59 C30.81,50.59 30.451,50.729 30.174,50.98 L16.85,63.085 L16.85,52.09 C16.85,51.261 16.179,50.59 15.35,50.59 L7.459,50.59 C5.444,50.59 3.805,48.952 3.805,46.938 L3.805,16.215 C3.805,14.2 5.444,12.56 7.459,12.56 L49.822,12.56 C49.827,12.56 49.832,12.561 49.837,12.561 C49.842,12.561 49.847,12.56 49.852,12.56 L58.567,12.56 C60.582,12.56 62.22,14.2 62.22,16.215 L62.22,46.938 L62.22,46.938 Z M92.194,27.147 C92.194,28.35 91.217,29.329 90.016,29.329 L84.379,29.329 C83.551,29.329 82.879,30 82.879,30.829 L82.879,37.711 L74.081,29.719 C73.805,29.469 73.445,29.329 73.072,29.329 L65.219,29.329 L65.219,16.216 C65.219,12.547 62.234,9.561 58.566,9.561 L51.337,9.561 L51.337,5.207 C51.337,4.004 52.316,3.026 53.518,3.026 L90.016,3.026 C91.217,3.026 92.194,4.004 92.194,5.207 L92.194,27.147 Z" id="Shape" fill="#231F20" fill-rule="nonzero"></path>
                <path d="M28,22.3031992 C28.3551436,21.9898372 28.7442289,21.6921478 29.1672676,21.410122 C29.5903063,21.1280962 30.0472857,20.8826329 30.5382195,20.6737249 C31.0291533,20.4648169 31.5618607,20.3003043 32.1363577,20.1801822 C32.7108547,20.0600601 33.3323467,20 34.0008523,20 C34.9096021,20 35.7373876,20.1253429 36.4842337,20.3760325 C37.2310798,20.6267221 37.870851,20.9844717 38.4035664,21.449292 C38.9362818,21.9141123 39.3488689,22.4755441 39.6413401,23.1336043 C39.9338113,23.7916645 40.0800447,24.5280542 40.0800447,25.3427954 C40.0800447,26.1366458 39.965147,26.8234205 39.7353482,27.4031402 C39.5055494,27.9828599 39.2156939,28.4868429 38.865773,28.9151043 C38.5158521,29.3433657 38.1372121,29.7141719 37.7298415,30.0275339 C37.3224709,30.3408959 36.9359969,30.635974 36.5704079,30.9127771 C36.2048189,31.1895802 35.8888502,31.4611565 35.6224925,31.7275142 C35.3561348,31.9938719 35.1968449,32.2941727 35.1446179,32.6284255 L34.7842534,34.9159566 L32.1363577,34.9159566 L31.8700014,32.3620691 C31.859556,32.3098421 31.8543333,32.2654498 31.8543333,32.2288909 L31.8543333,32.0957127 C31.8543333,31.6361151 31.969231,31.2365846 32.1990298,30.8971091 C32.4288286,30.5576336 32.7160728,30.2390537 33.060771,29.9413598 C33.4054692,29.6436659 33.7762753,29.3538104 34.1732005,29.0717846 C34.5701257,28.7897588 34.9409319,28.4842354 35.2856301,28.1552053 C35.6303283,27.8261752 35.9175725,27.4527577 36.1473713,27.0349417 C36.3771701,26.6171257 36.4920678,26.1261993 36.4920678,25.5621477 C36.4920678,25.1861133 36.4215624,24.8492542 36.2805495,24.5515603 C36.1395366,24.2538664 35.9436882,23.9979579 35.6929986,23.7838272 C35.442309,23.5696965 35.1420083,23.405184 34.7920874,23.2902846 C34.4421665,23.1753852 34.0635264,23.1179363 33.6561558,23.1179363 C33.060768,23.1179363 32.556785,23.1832191 32.1441917,23.3137866 C31.7315984,23.4443541 31.3816828,23.5905875 31.0944343,23.7524912 C30.8071858,23.9143949 30.5643339,24.0606283 30.3658713,24.1911958 C30.1674087,24.3217633 29.9898395,24.3870461 29.8331585,24.3870461 C29.4571241,24.3870461 29.1855478,24.2303674 29.0184214,23.9170054 L28,22.3031992 Z M30.9612561,40.7757967 C30.9612561,40.4519893 31.0213162,40.1438547 31.1414383,39.8513835 C31.2615604,39.5589123 31.4286843,39.3082264 31.642815,39.0993184 C31.8569457,38.8904104 32.1102429,38.7232865 32.4027141,38.5979417 C32.6951853,38.4725969 33.0085426,38.4099255 33.3427954,38.4099255 C33.6666028,38.4099255 33.9747375,38.4725969 34.2672087,38.5979417 C34.5596799,38.7232865 34.8103657,38.8904104 35.0192737,39.0993184 C35.2281817,39.3082264 35.3953056,39.5589123 35.5206504,39.8513835 C35.6459952,40.1438547 35.7086667,40.4519893 35.7086667,40.7757967 C35.7086667,41.1100495 35.6459952,41.4207955 35.5206504,41.708044 C35.3953056,41.9952925 35.2281817,42.2433671 35.0192737,42.4522751 C34.8103657,42.6611831 34.5596799,42.8256957 34.2672087,42.9458178 C33.9747375,43.0659399 33.6666028,43.126 33.3427954,43.126 C33.0085426,43.126 32.6951853,43.0659399 32.4027141,42.9458178 C32.1102429,42.8256957 31.8569457,42.6611831 31.642815,42.4522751 C31.4286843,42.2433671 31.2615604,41.9952925 31.1414383,41.708044 C31.0213162,41.4207955 30.9612561,41.1100495 30.9612561,40.7757967 Z" id="?" fill="#000000"></path>
                <path d="M70,10.4068577 C70.2169315,10.2154476 70.4545956,10.0336106 70.7129993,9.86134146 C70.9714031,9.68907231 71.2505387,9.53913659 71.5504146,9.41152981 C71.8502906,9.28392303 72.175683,9.1834342 72.5266016,9.1100603 C72.8775203,9.0366864 73.2571448,9 73.6654864,9 C74.2205759,9 74.7262102,9.07656292 75.1824045,9.22969106 C75.6385987,9.38281919 76.0293886,9.60134253 76.3547859,9.88526762 C76.6801832,10.1691927 76.9322028,10.5121308 77.1108523,10.9140921 C77.2895018,11.3160535 77.3788252,11.7658607 77.3788252,12.2635271 C77.3788252,12.7484329 77.3086425,13.1679339 77.1682751,13.5220427 C77.0279076,13.8761515 76.8508559,14.1839982 76.6371145,14.4455921 C76.4233731,14.707186 76.1920893,14.9336847 75.9432561,15.1250949 C75.6944229,15.316505 75.4583539,15.4967469 75.235042,15.6658259 C75.0117301,15.8349049 74.8187278,16.0007912 74.6560291,16.1634898 C74.4933305,16.3261885 74.3960318,16.5096205 74.3641301,16.7137913 L74.1440095,18.1110786 L72.5266016,18.1110786 L72.3639038,16.5510935 C72.3575235,16.5191918 72.3543333,16.4920758 72.3543333,16.4697446 L72.3543333,16.3883957 C72.3543333,16.1076607 72.424516,15.8636164 72.5648835,15.6562554 C72.7052509,15.4488944 72.8807076,15.254297 73.0912588,15.0724573 C73.30181,14.8906177 73.5283086,14.7135659 73.7707615,14.5412967 C74.0132144,14.3690276 74.239713,14.1824055 74.4502642,13.9814248 C74.6608154,13.7804441 74.8362721,13.5523504 74.9766396,13.2971369 C75.117007,13.0419233 75.1871897,12.7420519 75.1871897,12.3975136 C75.1871897,12.1678213 75.1441231,11.9620585 75.0579885,11.7802188 C74.9718539,11.5983792 74.8522243,11.4420632 74.6990962,11.3112663 C74.5459681,11.1804693 74.3625361,11.0799805 74.1487947,11.0097967 C73.9350534,10.939613 73.7037695,10.9045217 73.4549363,10.9045217 C73.091257,10.9045217 72.7834102,10.9443982 72.5313869,11.0241524 C72.2793635,11.1039067 72.0656253,11.1932301 71.890166,11.2921253 C71.7147067,11.3910206 71.566366,11.480344 71.4451396,11.5600982 C71.3239131,11.6398525 71.215449,11.679729 71.1197439,11.679729 C70.8900517,11.679729 70.7241654,11.5840253 70.6220799,11.3926152 L70,10.4068577 Z M71.8088171,21.6904309 C71.8088171,21.4926404 71.8455035,21.3044232 71.9188774,21.1257737 C71.9922513,20.9471242 72.0943352,20.7939984 72.2251321,20.6663916 C72.3559291,20.5387848 72.51065,20.4367009 72.6892995,20.3601369 C72.867949,20.2835728 73.0593563,20.2452913 73.2635271,20.2452913 C73.4613176,20.2452913 73.6495348,20.2835728 73.8281843,20.3601369 C74.0068338,20.4367009 74.1599596,20.5387848 74.2875664,20.6663916 C74.4151732,20.7939984 74.5172571,20.9471242 74.5938211,21.1257737 C74.6703852,21.3044232 74.7086667,21.4926404 74.7086667,21.6904309 C74.7086667,21.8946017 74.6703852,22.084414 74.5938211,22.2598733 C74.5172571,22.4353326 74.4151732,22.5868634 74.2875664,22.7144702 C74.1599596,22.842077 74.0068338,22.9425658 73.8281843,23.0159397 C73.6495348,23.0893136 73.4613176,23.126 73.2635271,23.126 C73.0593563,23.126 72.867949,23.0893136 72.6892995,23.0159397 C72.51065,22.9425658 72.3559291,22.842077 72.2251321,22.7144702 C72.0943352,22.5868634 71.9922513,22.4353326 71.9188774,22.2598733 C71.8455035,22.084414 71.8088171,21.8946017 71.8088171,21.6904309 Z" id="?-copy" fill="#000000"></path>
            </g>
        </g>
    </g>
</svg>