<?xml version="1.0" encoding="UTF-8"?>
<svg width="60px" height="60px" viewBox="0 0 60 60" version="1.1" xmlns="http://www.w3.org/2000/svg" xmlns:xlink="http://www.w3.org/1999/xlink">
    <!-- Generator: Sketch 44.1 (41455) - http://www.bohemiancoding.com/sketch -->
    <title>question-circular-speech-bubble-outline</title>
    <desc>Created with Sketch.</desc>
    <defs></defs>
    <g id="Page-1" stroke="none" stroke-width="1" fill="none" fill-rule="evenodd">
        <g id="Landing" transform="translate(-1038.000000, -1647.000000)" fill-rule="nonzero" fill="#000000">
            <g id="question-circular-speech-bubble-outline" transform="translate(1038.000000, 1647.000000)">
                <g id="Group">
                    <path d="M5.89826087,59.9427347 C5.61913043,59.9427347 5.34391304,59.8580816 5.11434783,59.6937551 C4.76478261,59.4435306 4.57043478,59.0439184 4.59652174,58.6281224 L5.50956522,43.2797755 C5.55,42.5925918 6.16565217,42.0709796 6.88565217,42.1095714 C7.60565217,42.1481633 8.15478261,42.7357551 8.11304348,43.4229388 L7.31217391,56.9051837 L20.6478261,52.4123469 C21.3313043,52.1882653 22.0734783,52.5256327 22.3121739,53.1717347 C22.5508696,53.8203265 22.1947826,54.5311633 21.5165217,54.7602245 L6.3326087,59.8705306 C6.19043478,59.9203265 6.04434783,59.9427347 5.89826087,59.9427347 Z" id="Shape"></path>
                    <path d="M29.8995652,56.1731837 C26.7769565,56.1731837 23.6973913,55.6926531 20.7013043,54.7378163 L21.5269565,52.3774898 C25.4869565,53.6398163 29.606087,53.9896327 33.7747826,53.4157347 C40.833913,52.4447143 47.0726087,48.9092041 51.3430435,43.4615306 C55.6108696,38.015102 57.4030435,31.3063469 56.3843478,24.571449 C54.2882609,10.6746531 40.7321739,0.991836735 26.1652174,2.99487755 C19.11,3.96216327 12.8713043,7.49767347 8.60086957,12.9478367 C4.33043478,18.3967551 2.53826087,25.1042653 3.55565217,31.8354286 C4.1373913,35.709551 5.59565217,39.3048163 7.8873913,42.5203878 L5.73,43.920898 C3.2126087,40.3891224 1.61347826,36.4427959 0.973043478,32.1902245 C-0.142173913,24.8017551 1.82347826,17.4381837 6.5126087,11.456449 C11.2017391,5.47346939 18.0495652,1.59312245 25.7934783,0.528734694 C41.7926087,-1.65481633 56.666087,8.96042857 58.9669565,24.2141633 C60.0834783,31.6063673 58.1204348,38.9711837 53.4326087,44.9516735 C48.7447826,50.9321633 41.8956522,54.8125102 34.1491304,55.8781429 C32.7247826,56.0748367 31.3082609,56.1731837 29.8995652,56.1731837 Z" id="Shape"></path>
                </g>
                <g id="Group" transform="translate(19.565217, 11.448980)">
                    <g transform="translate(0.000000, 8.469388)" id="Shape">
                        <path d="M4.46217391,3.72687755 C4.45434783,3.72687755 4.44652174,3.72687755 4.43869565,3.72687755 C2.53565217,3.71940816 1.15956522,2.72597959 0.931304348,1.196 C0.854347826,0.685591837 1.22608696,0.212530612 1.76086957,0.139081633 C2.29565217,0.0506938776 2.7926087,0.420428571 2.86826087,0.930836735 C2.98956522,1.73504082 3.90913043,1.85704082 4.44652174,1.85953061 C4.45434783,1.85953061 4.46347826,1.85953061 4.4726087,1.85953061 C5.77695652,1.85953061 5.8173913,1.57569388 5.92695652,0.826265306 C6.0026087,0.317102041 6.49434783,-0.0426734694 7.03173913,0.0295306122 C7.56652174,0.101734694 7.93956522,0.57355102 7.86652174,1.08395918 C7.59391304,2.93636735 6.57391304,3.72687755 4.46217391,3.72687755 Z"></path>
                    </g>
                    <g transform="translate(5.217391, 22.163265)" id="Shape">
                        <path d="M4.10347826,3.79285714 C2.1626087,3.79285714 0.643043478,2.61393878 0.643043478,1.10761224 C0.643043478,0.59222449 1.08130435,0.173938776 1.62130435,0.173938776 C2.16130435,0.173938776 2.59956522,0.59222449 2.59956522,1.10761224 C2.59956522,1.49602041 3.2426087,1.9255102 4.10347826,1.9255102 C4.96304348,1.9255102 5.60478261,1.49353061 5.60478261,1.10761224 C5.60478261,0.59222449 6.04304348,0.173938776 6.58304348,0.173938776 C7.12304348,0.173938776 7.56130435,0.59222449 7.56130435,1.10761224 C7.56130435,2.61144898 6.04173913,3.79285714 4.10347826,3.79285714 Z"></path>
                    </g>
                    <path d="M11.7978261,24.2020612 L11.7978261,24.2020612 C11.2565217,24.2020612 10.8195652,23.7837755 10.8195652,23.2671429 C10.8208696,21.9512857 10.8417391,19.6656531 10.9669565,19.1465306 C11.0686957,18.7207755 11.3582609,18.5054082 12.2191304,17.8680204 C14.0308696,16.5285102 18.2673913,13.3888776 18.2673913,9.48612245 C18.2673913,4.61732653 15.6743478,2.14744898 10.56,2.14744898 C7.74652174,2.14744898 5.57217391,2.87197959 4.27173913,4.24385714 C3.11086957,5.46634694 2.63869565,7.1992449 2.86826087,9.394 C2.92173913,9.90689796 2.52913043,10.3637755 1.99173913,10.4148163 C1.45956522,10.4695918 0.975652174,10.0923878 0.922173913,9.5782449 C0.635217391,6.83822449 1.27565217,4.62106122 2.82130435,2.9902449 C4.5026087,1.2175102 7.17913043,0.280102041 10.5613043,0.280102041 C16.7021739,0.280102041 20.2252174,3.63510204 20.2252174,9.48612245 C20.2252174,14.3038776 15.4578261,17.836898 13.4204348,19.3444694 C13.1843478,19.52 12.9886957,19.6594286 12.8517391,19.7689796 C12.8073913,20.3652857 12.7773913,21.9363469 12.776087,23.2696327 C12.776087,23.7837755 12.3378261,24.2020612 11.7978261,24.2020612 Z M5.86956522,23.2907959 C5.86956522,23.2907959 5.80043478,20.2856122 5.80043478,18.3585102 C5.80043478,16.9368367 7.2573913,15.945898 8.94391304,14.8018367 C10.9826087,13.4162653 13.293913,11.8439592 13.293913,9.48736735 C13.293913,7.48681633 12.6547826,6.87557143 10.5586957,6.87557143 C8.83956522,6.87557143 7.99695652,7.29012245 7.86391304,9.64671429 C7.83521739,10.1608571 7.39304348,10.5642041 6.83347826,10.528102 C6.29478261,10.5007143 5.88130435,10.0600204 5.91,9.54463265 C6.0873913,6.45106122 7.56391304,5.00822449 10.5586957,5.00822449 C13.7152174,5.00822449 15.2504348,6.47346939 15.2504348,9.48736735 C15.2504348,12.8062653 12.2621739,14.8379388 10.0786957,16.3218571 C9.09913043,16.9878776 7.75695652,17.9028776 7.75695652,18.3597551 C7.75695652,20.2694286 7.82608696,23.2484694 7.82608696,23.2509592 L5.86956522,23.2907959 Z" id="Shape"></path>
                </g>
                <path d="M28.9252174,46.7430816 C26.943913,46.7430816 25.3330435,45.2056327 25.3330435,43.3121429 C25.3330435,41.419898 26.943913,39.882449 28.9252174,39.882449 C30.9065217,39.882449 32.5173913,41.419898 32.5173913,43.3121429 C32.5173913,45.2043878 30.9065217,46.7430816 28.9252174,46.7430816 Z M28.9252174,41.7497959 C28.023913,41.7497959 27.2895652,42.4494286 27.2895652,43.3121429 C27.2895652,44.1748571 28.0226087,44.8757347 28.9252174,44.8757347 C29.8278261,44.8757347 30.5608696,44.176102 30.5608696,43.3121429 C30.5608696,42.4481837 29.8265217,41.7497959 28.9252174,41.7497959 Z" id="Shape"></path>
            </g>
        </g>
    </g>
</svg>