<?xml version="1.0" encoding="UTF-8"?>
<svg width="68px" height="44px" viewBox="0 0 68 44" version="1.1" xmlns="http://www.w3.org/2000/svg" xmlns:xlink="http://www.w3.org/1999/xlink">
    <!-- Generator: Sketch 46.2 (44496) - http://www.bohemiancoding.com/sketch -->
    <title>Tilda_Icons_2web_video</title>
    <desc>Created with Sketch.</desc>
    <defs></defs>
    <g id="Page-1" stroke="none" stroke-width="1" fill="none" fill-rule="evenodd">
        <g id="Landing" transform="translate(-366.000000, -2903.000000)" fill-rule="nonzero" fill="#000000">
            <g id="Tilda_Icons_2web_video" transform="translate(366.000000, 2903.000000)">
                <path d="M63.7981869,0 L4.20181315,0 C1.88482022,0 0,1.68233168 0,3.75011407 L0,40.2490829 C0,42.3168653 1.88482022,44 4.20181315,44 L63.7981869,44 C66.1151798,44 68,42.3168653 68,40.2490829 L68,3.75011407 C68,1.68233168 66.1151798,0 63.7981869,0 Z M65.5856274,40.2490829 C65.5856274,40.9758181 64.7671551,41.5909331 63.7981869,41.5909331 L4.20181315,41.5909331 C3.23284494,41.5909331 2.41437262,40.9758181 2.41437262,40.2490829 L2.41437262,3.75011407 C2.41437262,3.0233789 3.23284494,2.40906685 4.20181315,2.40906685 L63.7981869,2.40906685 C64.7671551,2.40906685 65.5856274,3.0233789 65.5856274,3.75011407 L65.5856274,40.2490829 L65.5856274,40.2490829 Z" id="Shape"></path>
                <path d="M34,6 C25.1777045,6 18,13.1777045 18,22 C18,30.8222955 25.1777045,38 34,38 C42.8222955,38 50,30.8222955 50,22 C50,13.1777045 42.8222955,6 34,6 Z M34,35.6026371 C26.4994506,35.6026371 20.3973629,29.4997503 20.3973629,22 C20.3973629,14.5002497 26.4994506,8.3973629 34,8.3973629 C41.5005494,8.3973629 47.6026371,14.4994506 47.6026371,22 C47.6026371,29.5005494 41.5005494,35.6026371 34,35.6026371 Z" id="Shape"></path>
                <path d="M41.4309329,21.0031433 L31.8689791,15.1818905 C31.4942077,14.952466 31.0186302,14.9391091 30.6300386,15.1473197 C30.2406341,15.3547445 30,15.7499517 30,16.1789441 L30,27.8214497 C30,28.250442 30.2414471,28.6456492 30.6300386,28.8530741 C30.813766,28.9512866 31.0161913,29 31.2194296,29 C31.4454305,29 31.6714315,28.9395011 31.8689791,28.819289 L41.4309329,22.9972504 C41.7853804,22.7819686 42,22.4048325 42,22.0001969 C42,21.5955613 41.7853804,21.2184252 41.4309329,21.0031433 Z M32.4388592,25.6859165 L32.4388592,18.3136915 L38.4929205,21.9994112 L32.4388592,25.6859165 Z" id="Shape"></path>
            </g>
        </g>
    </g>
</svg>