<?xml version="1.0" encoding="UTF-8"?>
<svg width="65px" height="65px" viewBox="0 0 65 65" version="1.1" xmlns="http://www.w3.org/2000/svg" xmlns:xlink="http://www.w3.org/1999/xlink">
    <!-- Generator: Sketch 44.1 (41455) - http://www.bohemiancoding.com/sketch -->
    <title>play-button</title>
    <desc>Created with Sketch.</desc>
    <defs></defs>
    <g id="Page-1" stroke="none" stroke-width="1" fill="none" fill-rule="evenodd">
        <g id="Landing" transform="translate(-805.000000, -1639.000000)" fill-rule="nonzero" fill="#231F20">
            <g id="play-button" transform="translate(805.000000, 1639.000000)">
                <path d="M45.5265306,31.3591837 L27.605102,19.1020408 C27.0479592,18.6908163 25.5622449,18.6908163 25.4428571,20.2428571 L25.4428571,44.7571429 C25.5755102,46.3091837 27.0877551,46.3357143 27.605102,45.8979592 L45.5265306,33.6408163 C45.9908163,33.3622449 46.627551,32.2214286 45.5265306,31.3591837 Z M28.2153061,42.1438776 L28.2153061,22.8561224 L42.2897959,32.5 L28.2153061,42.1438776 L28.2153061,42.1438776 Z" id="Shape"></path>
                <path d="M32.5,0 C14.5785714,0 0,14.5785714 0,32.5 C0,50.4214286 14.5785714,65 32.5,65 C50.4214286,65 65,50.4214286 65,32.5 C65,14.5785714 50.4214286,0 32.5,0 Z M32.5,62.227551 C16.1040816,62.227551 2.77244898,48.8959184 2.77244898,32.5 C2.77244898,16.1040816 16.1040816,2.77244898 32.5,2.77244898 C48.8959184,2.77244898 62.227551,16.1040816 62.227551,32.5 C62.227551,48.8959184 48.8959184,62.227551 32.5,62.227551 Z" id="Shape"></path>
            </g>
        </g>
    </g>
</svg>