<?xml version="1.0" encoding="UTF-8"?>
<svg width="60px" height="60px" viewBox="0 0 60 60" version="1.1" xmlns="http://www.w3.org/2000/svg" xmlns:xlink="http://www.w3.org/1999/xlink">
    <!-- Generator: Sketch 44.1 (41455) - http://www.bohemiancoding.com/sketch -->
    <title>Tilda_Icons_16cf_bubbles</title>
    <desc>Created with Sketch.</desc>
    <defs></defs>
    <g id="Page-1" stroke="none" stroke-width="1" fill="none" fill-rule="evenodd">
        <g id="Landing" transform="translate(-700.000000, -1647.000000)" fill-rule="nonzero" fill="#231F20">
            <g id="Tilda_Icons_16cf_bubbles" transform="translate(700.000000, 1647.000000)">
                <path d="M58.5943902,0.307317073 L19.8702439,0.307317073 C19.2636585,0.307317073 18.7726829,0.79902439 18.7726829,1.40487805 L18.7726829,17.2302439 L1.40634146,17.2302439 C0.799756098,17.2302439 0.308780488,17.7212195 0.308780488,18.3278049 L0.308780488,49.1180488 C0.308780488,49.7246341 0.799756098,50.2156098 1.40634146,50.2156098 L10.5878049,50.2156098 L19.2270732,59.3487805 C19.4385366,59.5726829 19.7290244,59.6919512 20.0246341,59.6919512 C20.1607317,59.6919512 20.2982927,59.6663415 20.43,59.6143902 C20.8478049,59.4482927 21.1214634,59.0443902 21.1221951,58.595122 L21.1265854,50.2156098 L42.017561,50.2156098 C42.6241463,50.2156098 43.115122,49.7246341 43.115122,49.1180488 L43.115122,33.2963415 L58.5943902,33.2963415 C59.2009756,33.2963415 59.6919512,32.8046341 59.6919512,32.1987805 L59.6919512,1.40487805 C59.6919512,0.79902439 59.2009756,0.307317073 58.5943902,0.307317073 Z M40.92,48.0204878 L20.0297561,48.0204878 C19.4239024,48.0204878 18.9321951,48.5114634 18.9321951,49.1180488 L18.9285366,55.8395122 L11.8580488,48.3643902 C11.6502439,48.1456098 11.3619512,48.0212195 11.0604878,48.0212195 L2.50390244,48.0212195 L2.50390244,19.4260976 L18.7726829,19.4260976 L18.7726829,32.1995122 C18.7726829,32.8053659 19.2636585,33.2970732 19.8702439,33.2970732 L27.6446341,33.2970732 L27.6446341,40.9953659 C27.6446341,41.4373171 27.9095122,41.8360976 28.3170732,42.0073171 C28.4546341,42.065122 28.5987805,42.0929268 28.7414634,42.0929268 C29.0239024,42.0929268 29.3012195,41.9839024 29.5104878,41.7782927 L38.1534146,33.2970732 L40.92,33.2970732 L40.92,48.0204878 Z M57.4968293,31.1012195 L37.7056098,31.1012195 C37.4180488,31.1012195 37.1421951,31.2139024 36.9365854,31.415122 L29.8390244,38.3795122 L29.8390244,32.1987805 C29.8390244,31.5921951 29.3480488,31.1012195 28.7414634,31.1012195 L20.9670732,31.1012195 L20.9670732,2.50243902 L57.4960976,2.50243902 L57.4960976,31.1004878 L57.4968293,31.1004878 L57.4968293,31.1012195 Z" id="Shape"></path>
            </g>
        </g>
    </g>
</svg>