<?xml version="1.0" encoding="UTF-8"?>
<svg width="69px" height="60px" viewBox="0 0 69 60" version="1.1" xmlns="http://www.w3.org/2000/svg" xmlns:xlink="http://www.w3.org/1999/xlink">
    <!-- Generator: Sketch 44.1 (41455) - http://www.bohemiancoding.com/sketch -->
    <title>Tilda_Icons_19ad_seo</title>
    <desc>Created with Sketch.</desc>
    <defs></defs>
    <g id="Page-1" stroke="none" stroke-width="1" fill="none" fill-rule="evenodd">
        <g id="Landing" transform="translate(-1005.000000, -1655.000000)" fill-rule="nonzero" fill="#000000">
            <g id="Tilda_Icons_19ad_seo" transform="translate(1005.000000, 1655.000000)">
                <path d="M63.5892308,0.447692308 L16.5938462,0.447692308 C13.7876923,0.447692308 11.5392308,2.42076923 11.4746154,4.96923077 L11.4746154,14.8261538 C11.4746154,15.4638462 11.9907692,15.98 12.6284615,15.98 C13.2661538,15.98 13.7823077,15.4638462 13.7823077,14.8261538 L13.7823077,4.99846154 C13.8138462,3.76153846 15.0753846,2.75538462 16.5938462,2.75538462 L63.5892308,2.75538462 C65.1415385,2.75538462 66.4038462,3.78230769 66.4038462,5.04538462 L66.4038462,42.6961538 C66.4038462,43.96 65.1407692,44.9876923 63.5892308,44.9876923 L16.5938462,44.9876923 C15.0438462,44.9876923 13.7823077,43.96 13.7823077,42.6961538 L13.7823077,37.3061538 C13.7823077,36.6692308 13.2661538,36.1523077 12.6284615,36.1523077 C11.9907692,36.1523077 11.4746154,36.6692308 11.4746154,37.3061538 L11.4746154,42.6961538 C11.4746154,45.2323077 13.7707692,47.2953846 16.5938462,47.2953846 L38.7615385,47.2953846 L38.7615385,57.2453846 L24.1146154,57.2453846 C23.4769231,57.2453846 22.9607692,57.7623077 22.9607692,58.3992308 C22.9607692,59.0361538 23.4769231,59.5530769 24.1146154,59.5530769 L55.5869231,59.5530769 C56.2238462,59.5530769 56.7407692,59.0361538 56.7407692,58.3992308 C56.7407692,57.7623077 56.2238462,57.2453846 55.5869231,57.2453846 L41.0692308,57.2453846 L41.0692308,47.2946154 L63.5892308,47.2946154 C66.4138462,47.2946154 68.7115385,45.2315385 68.7115385,42.6953846 L68.7115385,5.04538462 C68.7115385,2.51 66.4138462,0.447692308 63.5892308,0.447692308 Z" id="Shape"></path>
                <path d="M32.4069231,19.2746154 L57.1384615,19.2746154 C57.7753846,19.2746154 58.2923077,18.7584615 58.2923077,18.1207692 C58.2923077,17.4830769 57.7753846,16.9669231 57.1384615,16.9669231 L32.4069231,16.9669231 C31.7692308,16.9669231 31.2530769,17.4830769 31.2530769,18.1207692 C31.2530769,18.7584615 31.7692308,19.2746154 32.4069231,19.2746154 Z" id="Shape"></path>
                <path d="M32.4069231,26.5815385 L57.1384615,26.5815385 C57.7753846,26.5815385 58.2923077,26.0653846 58.2923077,25.4276923 C58.2923077,24.79 57.7753846,24.2738462 57.1384615,24.2738462 L32.4069231,24.2738462 C31.7692308,24.2738462 31.2530769,24.79 31.2530769,25.4276923 C31.2530769,26.0653846 31.7692308,26.5815385 32.4069231,26.5815385 Z" id="Shape"></path>
                <path d="M32.4069231,34.2923077 L57.1384615,34.2923077 C57.7753846,34.2923077 58.2923077,33.7753846 58.2923077,33.1384615 C58.2923077,32.5015385 57.7753846,31.9846154 57.1384615,31.9846154 L32.4069231,31.9846154 C31.7692308,31.9846154 31.2530769,32.5015385 31.2530769,33.1384615 C31.2530769,33.7753846 31.7692308,34.2923077 32.4069231,34.2923077 Z" id="Shape"></path>
                <path d="M12.3930769,29.0192308 C12.6907692,29.0192308 12.9861538,28.9046154 13.2092308,28.6815385 L29.88,12.01 C30.3307692,11.5592308 30.3307692,10.8284615 29.88,10.3784615 C29.4292308,9.92769231 28.6992308,9.92769231 28.2484615,10.3784615 L12.2676923,26.36 L2.34230769,19.2938462 C1.82230769,18.9246154 1.10307692,19.0461538 0.733076923,19.5646154 C0.363846154,20.0838462 0.484615385,20.8046154 1.00461538,21.1738462 L11.7253846,28.8053846 C11.9261538,28.9492308 12.1607692,29.0192308 12.3930769,29.0192308 Z" id="Shape"></path>
            </g>
        </g>
    </g>
</svg>