<?xml version="1.0" encoding="UTF-8"?>
<svg width="76px" height="60px" viewBox="0 0 76 60" version="1.1" xmlns="http://www.w3.org/2000/svg" xmlns:xlink="http://www.w3.org/1999/xlink">
    <!-- Generator: Sketch 44.1 (41455) - http://www.bohemiancoding.com/sketch -->
    <title>Tilda_Icons_15re_instalment</title>
    <desc>Created with Sketch.</desc>
    <defs></defs>
    <g id="Page-1" stroke="none" stroke-width="1" fill="none" fill-rule="evenodd">
        <g id="Landing" transform="translate(-359.000000, -1883.000000)" fill-rule="nonzero" fill="#000000">
            <g id="Tilda_Icons_15re_instalment" transform="translate(359.000000, 1883.000000)">
                <path d="M45.86,0.0863636364 C45.1072727,0.0863636364 44.4963636,0.696363636 44.4963636,1.45 C44.4963636,2.20363636 45.1072727,2.81363636 45.86,2.81363636 C60.8518182,2.81363636 73.0481818,15.0090909 73.0481818,30 C73.0481818,44.99 60.8518182,57.1854545 45.86,57.1854545 C34.5845455,57.1854545 24.5590909,50.1872727 20.5363636,39.8654545 L22.3490909,40.6718182 C23.0381818,40.9790909 23.8436364,40.6672727 24.1490909,39.9790909 C24.4545455,39.2909091 24.1454545,38.4845455 23.4572727,38.1790909 L18.7954545,36.1072727 C18.1236364,35.81 17.3381818,36.0954545 17.0154545,36.7554545 L14.9490909,40.9872727 C14.6190909,41.6636364 14.9,42.4809091 15.5763636,42.8109091 C15.7690909,42.9054545 15.9727273,42.9490909 16.1736364,42.9490909 C16.6781818,42.9490909 17.1636364,42.6672727 17.4,42.1836364 L18.0109091,40.9318182 C22.4554545,52.2509091 33.4790909,59.9127273 45.8590909,59.9127273 C62.3554545,59.9127273 75.7745455,46.4936364 75.7745455,30 C75.7745455,13.5063636 62.3563636,0.0863636364 45.86,0.0863636364 Z" id="Shape"></path>
                <path d="M35.1390909,23.2763636 L35.1390909,5.91454545 C35.1390909,5.16090909 34.5290909,4.55090909 33.7754545,4.55090909 L1.95,4.55090909 C1.19636364,4.55090909 0.586363636,5.16090909 0.586363636,5.91454545 L0.586363636,23.2763636 C0.586363636,24.03 1.19636364,24.64 1.95,24.64 L33.7754545,24.64 C34.5281818,24.64 35.1390909,24.03 35.1390909,23.2763636 Z M32.4118182,21.9127273 L3.31363636,21.9127273 L3.31363636,7.27818182 L32.4118182,7.27818182 L32.4118182,21.9127273 L32.4118182,21.9127273 Z" id="Shape"></path>
                <path d="M17.8636364,19.4827273 C20.5590909,19.4827273 22.7527273,17.2890909 22.7527273,14.5936364 C22.7527273,11.8981818 20.5590909,9.70454545 17.8636364,9.70454545 C15.1681818,9.70454545 12.9745455,11.8981818 12.9745455,14.5936364 C12.9745455,17.2890909 15.1681818,19.4827273 17.8636364,19.4827273 Z M17.8636364,12.4318182 C19.0554545,12.4318182 20.0254545,13.4018182 20.0254545,14.5936364 C20.0254545,15.7854545 19.0554545,16.7554545 17.8636364,16.7554545 C16.6718182,16.7554545 15.7018182,15.7854545 15.7018182,14.5936364 C15.7018182,13.4018182 16.6718182,12.4318182 17.8636364,12.4318182 Z" id="Shape"></path>
                <path d="M31.2063636,44.7163636 C31.4727273,44.9827273 31.8218182,45.1154545 32.1709091,45.1154545 C32.52,45.1154545 32.8690909,44.9827273 33.1354545,44.7163636 L46.55,31.2927273 C46.8054545,31.0372727 46.9490909,30.69 46.9490909,30.3281818 L46.9490909,10.9327273 C46.9490909,10.1790909 46.3381818,9.56909091 45.5854545,9.56909091 C44.8327273,9.56909091 44.2218182,10.1790909 44.2218182,10.9327273 L44.2218182,29.7636364 L31.2054545,42.7872727 C30.6736364,43.32 30.6736364,44.1845455 31.2063636,44.7163636 Z" id="Shape"></path>
            </g>
        </g>
    </g>
</svg>