<?xml version="1.0" encoding="UTF-8"?>
<svg width="75px" height="60px" viewBox="0 0 75 60" version="1.1" xmlns="http://www.w3.org/2000/svg" xmlns:xlink="http://www.w3.org/1999/xlink">
    <!-- Generator: Sketch 44.1 (41455) - http://www.bohemiancoding.com/sketch -->
    <title>Tilda_Icons_17ked_opendoors</title>
    <desc>Created with Sketch.</desc>
    <defs></defs>
    <g id="Page-1" stroke="none" stroke-width="1" fill="none" fill-rule="evenodd">
        <g id="Landing" transform="translate(-993.000000, -1883.000000)" fill-rule="nonzero" fill="#000000">
            <g id="Tilda_Icons_17ked_opendoors" transform="translate(993.000000, 1883.000000)">
                <path d="M9.81,27.59925 C10.1235,27.59925 10.4355,27.46875 10.6575,27.2145 C11.06625,26.7465 11.01825,26.0355 10.55025,25.62675 L2.34375,18.46125 C1.87575,18.0525 1.1655,18.10125 0.756,18.5685 C0.34725,19.0365 0.39525,19.7475 0.86325,20.15625 L9.06975,27.32175 C9.2835,27.50775 9.54675,27.59925 9.81,27.59925 Z" id="Shape"></path>
                <path d="M17.38875,20.46225 C17.58225,20.865 17.98425,21.09975 18.4035,21.09975 C18.567,21.09975 18.7335,21.06375 18.89025,20.988 C19.4505,20.71875 19.686,20.04675 19.416,19.4865 L14.6925,9.669 C14.424,9.1095 13.74975,8.87475 13.191,9.14325 C12.63075,9.4125 12.39525,10.0845 12.66525,10.64475 L17.38875,20.46225 Z" id="Shape"></path>
                <path d="M74.376,58.01025 L74.376,12.88425 C74.376,12.87075 74.3715,12.858 74.3715,12.8445 C74.36925,12.78675 74.36175,12.72975 74.35125,12.67275 C74.34675,12.648 74.343,12.62325 74.337,12.5985 C74.32125,12.5385 74.298,12.48 74.27175,12.4215 C74.26425,12.40575 74.262,12.3885 74.25375,12.37275 C74.2515,12.36825 74.2455,12.357 74.2425,12.35175 C74.2425,12.351 74.24175,12.351 74.24175,12.35025 C74.241,12.3495 74.2395,12.34575 74.23875,12.34425 C73.8585,11.61075 67.7235,0.32025 51.318,0.32025 C33.81525,0.32025 28.5405,11.93925 28.32525,12.43425 C28.263,12.576 28.2315,12.72975 28.2315,12.88425 L28.2315,20.253 C17.295,21.53175 9.4785,32.78775 9.132,33.29475 C8.871,33.67725 8.871,34.18125 9.132,34.563 C9.4785,35.07 17.295,46.326 28.2315,47.60475 L28.2315,58.5525 C28.2315,59.1735 28.73475,59.6775 29.3565,59.6775 L73.398,59.6775 C74.019,59.6775 74.523,59.1735 74.523,58.5525 C74.5215,58.35525 74.466,58.17225 74.376,58.01025 Z M68.27475,9.738 C70.224,10.299 71.6925,12.48375 72.126,13.19175 L72.126,56.898 L58.32075,51.42525 L58.32075,20.979 C58.458,20.205 59.817,13.386 65.66625,10.10025 C66.54825,9.6045 67.4025,9.486 68.27475,9.738 Z M11.4555,33.93 C13.2945,31.51575 20.364,23.0325 29.2305,22.419 C29.27175,22.4235 29.31225,22.43175 29.355,22.43175 C29.4435,22.43175 29.529,22.419 29.6115,22.3995 C29.82,22.3905 30.0285,22.38075 30.2385,22.38075 C38.6235,22.3815 45.741,31.45725 47.52375,33.93 C45.741,36.40275 38.6235,45.4785 30.2385,45.4785 C20.90325,45.4785 13.3635,36.43425 11.4555,33.93 Z M30.48,47.7195 C41.244,47.53425 49.49025,35.07825 49.83825,34.5435 C50.08125,34.17 50.08125,33.68775 49.83825,33.31425 C49.49025,32.781 41.244,20.325 30.48,20.139 L30.48,13.137 C31.23525,11.619 36.3675,2.57025 51.31725,2.57025 C58.49475,2.57025 63.51225,4.89525 66.834,7.392 C66.06975,7.47375 65.31075,7.71975 64.5645,8.139 C57.40575,12.159 56.133,20.376 56.082,20.724 C56.07375,20.778 56.07,20.832 56.07,20.886 L56.07,52.188 C56.07,52.64925 56.35125,53.064 56.78025,53.23425 L67.35975,57.42825 L30.48,57.42825 L30.48,47.7195 Z" id="Shape"></path>
                <path d="M61.61175,31.281 C60.99075,31.281 60.48675,31.785 60.48675,32.406 L60.48675,35.68575 C60.48675,36.30675 60.99075,36.81075 61.61175,36.81075 C62.23275,36.81075 62.73675,36.30675 62.73675,35.68575 L62.73675,32.406 C62.73675,31.785 62.2335,31.281 61.61175,31.281 Z" id="Shape"></path>
                <path d="M37.323,33.93075 C37.323,29.40825 33.80325,25.7295 29.47725,25.7295 C25.15125,25.7295 21.6315,29.40825 21.6315,33.93075 C21.6315,38.45325 25.15125,42.13275 29.47725,42.13275 C33.80325,42.132 37.323,38.45325 37.323,33.93075 Z M29.47725,39.882 C26.39175,39.882 23.8815,37.212 23.8815,33.93 C23.8815,30.64875 26.39175,27.97875 29.47725,27.97875 C32.56275,27.97875 35.073,30.64875 35.073,33.93 C35.073,37.212 32.56275,39.882 29.47725,39.882 Z" id="Shape"></path>
            </g>
        </g>
    </g>
</svg>