<?xml version="1.0" encoding="UTF-8"?>
<svg width="62px" height="40px" viewBox="0 0 62 40" version="1.1" xmlns="http://www.w3.org/2000/svg" xmlns:xlink="http://www.w3.org/1999/xlink">
    <!-- Generator: Sketch 44.1 (41455) - http://www.bohemiancoding.com/sketch -->
    <title>Tilda_Icons_10cw_letter</title>
    <desc>Created with Sketch.</desc>
    <defs></defs>
    <g id="Page-1" stroke="none" stroke-width="1" fill="none" fill-rule="evenodd">
        <g id="Landing" transform="translate(-369.000000, -2125.000000)" fill-rule="nonzero" fill="#000000">
            <g id="Tilda_Icons_10cw_letter" transform="translate(369.000000, 2125.000000)">
                <path d="M61.3588636,38.7536842 C61.3919773,38.6519298 61.4145227,38.5445614 61.4145227,38.4315789 L61.4145227,1.14947368 C61.4145227,1.03578947 61.3919773,0.927719298 61.3581591,0.825263158 C61.3532273,0.81122807 61.3504091,0.797192982 61.3447727,0.783157895 C61.2996818,0.663157895 61.2334545,0.555087719 61.1503182,0.460350877 C61.1446818,0.454035088 61.1439773,0.446315789 61.1383409,0.44 C61.1348182,0.436491228 61.1305909,0.435087719 61.1270682,0.431578947 C61.0382955,0.33754386 60.9333182,0.261754386 60.8156591,0.204912281 C60.8065,0.200701754 60.7994545,0.195087719 60.7902955,0.190877193 C60.6789773,0.141052632 60.5577955,0.112982456 60.4302727,0.104561404 C60.4175909,0.103859649 60.4056136,0.101052632 60.3929318,0.101052632 C60.3809545,0.100350877 60.3703864,0.0975438596 60.3584091,0.0975438596 L1.73670455,0.0975438596 C1.72472727,0.0975438596 1.71345455,0.100350877 1.70147727,0.101052632 C1.69020455,0.101754386 1.67893182,0.103859649 1.66765909,0.104561404 C1.53872727,0.112982456 1.41543182,0.141754386 1.30270455,0.192280702 C1.29565909,0.195087719 1.29002273,0.2 1.28297727,0.202807018 C1.16320455,0.259649123 1.05681818,0.336842105 0.967340909,0.432280702 C0.963818182,0.435789474 0.959590909,0.436491228 0.956068182,0.44 C0.950431818,0.445614035 0.949727273,0.453333333 0.944090909,0.459649123 C0.860954545,0.554385965 0.794022727,0.663157895 0.748931818,0.783157895 C0.743295455,0.797192982 0.740477273,0.81122807 0.735545455,0.825964912 C0.701727273,0.928421053 0.679181818,1.03649123 0.679181818,1.15017544 L0.679181818,38.4329825 C0.679181818,38.5480702 0.702431818,38.6575439 0.736954545,38.7614035 C0.741886364,38.7754386 0.744704545,38.7887719 0.749636364,38.802807 C0.795431818,38.9235088 0.863068182,39.0322807 0.946909091,39.1270175 C0.951840909,39.1326316 0.95325,39.1396491 0.958181818,39.1452632 C0.962409091,39.1501754 0.968045455,39.1529825 0.972977273,39.1578947 C1.0075,39.1936842 1.04554545,39.2252632 1.085,39.2561404 C1.10261364,39.2694737 1.11811364,39.285614 1.13643182,39.2982456 C1.18293182,39.3305263 1.23295455,39.3564912 1.28438636,39.3803509 C1.29706818,39.3859649 1.30834091,39.3950877 1.32102273,39.4 C1.44854545,39.4540351 1.58875,39.4849123 1.736,39.4849123 L60.357,39.4849123 C60.50425,39.4849123 60.6444545,39.4547368 60.7719773,39.4 C60.7917045,39.3915789 60.8100227,39.3789474 60.8290455,39.3691228 C60.8727273,39.3473684 60.9164091,39.3249123 60.9565682,39.2975439 C60.9777045,39.282807 60.9967273,39.2638596 61.0171591,39.2477193 C61.0530909,39.2189474 61.0883182,39.1901754 61.1193182,39.157193 C61.1249545,39.1515789 61.1312955,39.1473684 61.1369318,39.1417544 C61.1425682,39.1354386 61.1439773,39.1270175 61.1496136,39.1207018 C61.2320455,39.0266667 61.2982727,38.9185965 61.3433636,38.7992982 C61.3504091,38.7838596 61.3539318,38.7691228 61.3588636,38.7536842 Z M2.79352273,3.53684211 L20.5811818,19.72 L2.79352273,36.0322807 L2.79352273,3.53684211 Z M39.2509318,18.9270175 C39.1776591,18.9747368 39.1001591,19.0147368 39.0388636,19.0821053 C39.0156136,19.1073684 39.0078636,19.1403509 38.9874318,19.1670175 L31.0472045,26.3908772 L4.46047727,2.20210526 L57.6339318,2.20210526 L39.2509318,18.9270175 Z M22.1480909,21.1452632 L30.3342045,28.5929825 C30.5364091,28.7768421 30.7914545,28.8687719 31.0472045,28.8687719 C31.3029545,28.8687719 31.558,28.7768421 31.7595,28.5929825 L39.8441591,21.2378947 L57.629,37.3796491 L4.44497727,37.3796491 L22.1480909,21.1452632 Z M41.4117727,19.8119298 L59.3008864,3.53684211 L59.3008864,36.0491228 L41.4117727,19.8119298 Z" id="Shape"></path>
            </g>
        </g>
    </g>
</svg>