<?xml version="1.0" encoding="UTF-8"?>
<svg width="74px" height="42px" viewBox="0 0 74 42" version="1.1" xmlns="http://www.w3.org/2000/svg" xmlns:xlink="http://www.w3.org/1999/xlink">
    <!-- Generator: Sketch 44.1 (41455) - http://www.bohemiancoding.com/sketch -->
    <title>Tilda_Icons_10cw_group</title>
    <desc>Created with Sketch.</desc>
    <defs></defs>
    <g id="Page-1" stroke="none" stroke-width="1" fill="none" fill-rule="evenodd">
        <g id="Landing" transform="translate(-683.000000, -2123.000000)" fill-rule="nonzero" fill="#000000">
            <g id="Tilda_Icons_10cw_group" transform="translate(683.000000, 2123.000000)">
                <path d="M37.0834468,22.5349811 C27.5051702,22.5349811 19.7123404,30.3786792 19.7123404,40.0204528 C19.7123404,40.6766038 20.2405745,41.2091321 20.8931915,41.2091321 L53.2729149,41.2091321 C53.9247447,41.2091321 54.453766,40.6766038 54.453766,40.0204528 C54.453766,30.3786792 46.6609362,22.5349811 37.0834468,22.5349811 Z M22.1204894,38.8317736 C22.7250851,31.0546415 29.2055957,24.9123396 37.0834468,24.9123396 C44.9612979,24.9123396 51.4418085,31.0546415 52.045617,38.8317736 L22.1204894,38.8317736 Z" id="Shape"></path>
                <path d="M36.8000426,20.9651321 C42.4232553,20.9651321 46.9978723,16.3601887 46.9978723,10.6996981 C46.9978723,5.03920755 42.4224681,0.434264151 36.8000426,0.434264151 C31.1768298,0.434264151 26.6022128,5.03920755 26.6022128,10.6996981 C26.6022128,16.3601887 31.1768298,20.9651321 36.8000426,20.9651321 Z M36.8000426,2.81162264 C41.120383,2.81162264 44.6361702,6.34992453 44.6361702,10.6996981 C44.6361702,15.0486792 41.120383,18.5877736 36.8000426,18.5877736 C32.4789149,18.5877736 28.9639149,15.0494717 28.9639149,10.6996981 C28.9639149,6.34992453 32.4789149,2.81162264 36.8000426,2.81162264 Z" id="Shape"></path>
                <path d="M13.9970213,29.0941132 C15.9344043,29.0941132 17.8371489,29.6139623 19.4997872,30.5981887 C20.0618723,30.9326038 20.7861277,30.7416226 21.1159787,30.1766038 C21.446617,29.6107925 21.2592553,28.8817358 20.696383,28.5489057 C18.671617,27.3499245 16.3547872,26.7167547 13.9970213,26.7167547 C6.70959574,26.7167547 0.78093617,32.684717 0.78093617,40.0204528 C0.78093617,40.6766038 1.30917021,41.2091321 1.96178723,41.2091321 L16.9286809,41.2091321 C17.5812979,41.2091321 18.1095319,40.6766038 18.1095319,40.0204528 C18.1095319,39.3643019 17.5812979,38.8317736 16.9286809,38.8317736 L3.20640426,38.8317736 C3.79682979,33.3638491 8.41080851,29.0941132 13.9970213,29.0941132 Z" id="Shape"></path>
                <path d="M13.787617,24.8188302 C18.1339362,24.8188302 21.6709787,21.2591321 21.6709787,16.8832075 C21.6709787,12.507283 18.1347234,8.94758491 13.787617,8.94758491 C9.44051064,8.94758491 5.90425532,12.507283 5.90425532,16.8832075 C5.90425532,21.2583396 9.44051064,24.8188302 13.787617,24.8188302 Z M13.787617,11.3249434 C16.8318511,11.3249434 19.3092766,13.818 19.3092766,16.8832075 C19.3092766,19.9476226 16.8326383,22.4414717 13.787617,22.4414717 C10.7425957,22.4414717 8.26595745,19.9484151 8.26595745,16.8832075 C8.26595745,13.818 10.7425957,11.3249434 13.787617,11.3249434 Z" id="Shape"></path>
                <path d="M60.2651277,26.7167547 C57.9081489,26.7167547 55.5913191,27.350717 53.565766,28.5489057 C53.0028936,28.8817358 52.8155319,29.61 53.1461702,30.1758113 C53.4768085,30.7432075 54.2026383,30.9310189 54.7623617,30.5981887 C56.4257872,29.6139623 58.3285319,29.0941132 60.2651277,29.0941132 C65.8513404,29.0941132 70.4653191,33.3638491 71.0557447,38.8317736 L57.3358298,38.8317736 C56.684,38.8317736 56.1549787,39.3643019 56.1549787,40.0204528 C56.1549787,40.6766038 56.684,41.2091321 57.3358298,41.2091321 L72.3003617,41.2091321 C72.9521915,41.2091321 73.4812128,40.6766038 73.4812128,40.0204528 C73.4812128,32.684717 67.5525532,26.7167547 60.2651277,26.7167547 Z" id="Shape"></path>
                <path d="M60.4753191,24.8188302 C64.8216383,24.8188302 68.3586809,21.2591321 68.3586809,16.8832075 C68.3586809,12.507283 64.8224255,8.94758491 60.4753191,8.94758491 C56.1282128,8.94758491 52.5911702,12.507283 52.5911702,16.8832075 C52.5919574,21.2583396 56.1282128,24.8188302 60.4753191,24.8188302 Z M60.4753191,11.3249434 C63.5195532,11.3249434 65.9969787,13.818 65.9969787,16.8832075 C65.9969787,19.9476226 63.5203404,22.4414717 60.4753191,22.4414717 C57.4302979,22.4414717 54.9528723,19.9484151 54.9528723,16.8832075 C54.9536596,13.818 57.4302979,11.3249434 60.4753191,11.3249434 Z" id="Shape"></path>
            </g>
        </g>
    </g>
</svg>