<?xml version="1.0" encoding="UTF-8"?>
<svg width="66px" height="60px" viewBox="0 0 66 60" version="1.1" xmlns="http://www.w3.org/2000/svg" xmlns:xlink="http://www.w3.org/1999/xlink">
    <!-- Generator: Sketch 44.1 (41455) - http://www.bohemiancoding.com/sketch -->
    <title>Tilda_Icons_17ked_languages</title>
    <desc>Created with Sketch.</desc>
    <defs></defs>
    <g id="Page-1" stroke="none" stroke-width="1" fill="none" fill-rule="evenodd">
        <g id="Landing" transform="translate(-1009.000000, -2105.000000)" fill-rule="nonzero" fill="#000000">
            <g id="Tilda_Icons_17ked_languages" transform="translate(1009.000000, 2105.000000)">
                <path d="M33.1942857,8.25 C25.6814286,8.25 19.5692857,14.5592857 19.5692857,22.315 C19.5692857,30.0707143 25.6814286,36.38 33.1942857,36.38 C40.7071429,36.38 46.8192857,30.07 46.8192857,22.315 C46.8192857,14.56 40.7071429,8.25 33.1942857,8.25 Z M44.6278571,21.3142857 L39.6242857,21.3007143 C39.4842857,16.8978571 38.4421429,13.2092857 36.8614286,11.0264286 C41.1057143,12.5178571 44.2407143,16.5128571 44.6278571,21.3142857 Z M33.3821429,33.5971429 C31.5492857,33.5971429 29.5128571,29.3121429 29.2835714,23.4164286 L37.48,23.4385714 C37.2464286,29.3235714 35.2128571,33.5971429 33.3821429,33.5971429 Z M29.2821429,21.2735714 C29.5,15.3464286 31.5428571,11.0321429 33.3821429,11.0321429 C35.2235714,11.0321429 37.2685714,15.3578571 37.4821429,21.2957143 L29.2821429,21.2735714 Z M30.0314286,10.8628571 C28.3842857,13.0157143 27.2892857,16.7628571 27.1407143,21.2678571 L21.7635714,21.2535714 C22.1878571,16.29 25.5514286,12.2 30.0314286,10.8628571 Z M21.765,23.3964286 L27.1421429,23.4107143 C27.2964286,27.8942857 28.39,31.6221429 30.0321429,33.7664286 C25.5578571,32.4321429 22.1964286,28.3507143 21.765,23.3964286 Z M36.8607143,33.6028571 C38.4278571,31.4392857 39.4664286,27.7971429 39.6214286,23.4442857 L44.6207143,23.4578571 C44.1842857,28.1964286 41.0635714,32.1264286 36.8607143,33.6028571 Z" id="Shape"></path>
                <path d="M59.2307143,0.305 L6.47928571,0.305 C2.95642857,0.305 0.0907142857,3.17357143 0.0907142857,6.69857143 L0.0907142857,38.4085714 C0.0907142857,41.9314286 2.95642857,44.7971429 6.47928571,44.7971429 L13.5564286,44.7971429 L13.5564286,58.5714286 C13.5564286,58.9957143 13.8064286,59.38 14.1942857,59.5514286 C14.3335714,59.6128571 14.4807143,59.6428571 14.6271429,59.6428571 C14.8885714,59.6428571 15.1471429,59.5471429 15.3478571,59.3642857 L31.3814286,44.7964286 L59.23,44.7964286 C62.7557143,44.7964286 65.6235714,41.93 65.6235714,38.4078571 L65.6235714,6.69857143 C65.6242857,3.17285714 62.7557143,0.305 59.2307143,0.305 Z M63.4814286,38.4085714 C63.4814286,40.7492857 61.5742857,42.6542857 59.2307143,42.6542857 L30.9678571,42.6542857 C30.7014286,42.6542857 30.445,42.7535714 30.2471429,42.9328571 L15.6992857,56.1507143 L15.6992857,43.7257143 C15.6992857,43.1342857 15.22,42.6542857 14.6278571,42.6542857 L6.47928571,42.6542857 C4.13857143,42.6542857 2.23357143,40.7492857 2.23357143,38.4085714 L2.23357143,6.69857143 C2.23357143,4.355 4.13857143,2.44785714 6.47928571,2.44785714 L59.2307143,2.44785714 C61.5742857,2.44785714 63.4814286,4.355 63.4814286,6.69857143 L63.4814286,38.4085714 Z" id="Shape"></path>
            </g>
        </g>
    </g>
</svg>