<?xml version="1.0" encoding="UTF-8"?>
<svg width="60px" height="60px" viewBox="0 0 60 60" version="1.1" xmlns="http://www.w3.org/2000/svg" xmlns:xlink="http://www.w3.org/1999/xlink">
    <!-- Generator: Sketch 46.2 (44496) - http://www.bohemiancoding.com/sketch -->
    <title>Logo</title>
    <desc>Created with Sketch.</desc>
    <defs>
        <polygon id="path-1" points="0 59.5737929 0 0.0404251325 59.9592857 0.0404251325 59.9592857 59.5737929"></polygon>
    </defs>
    <g id="Page-1" stroke="none" stroke-width="1" fill="none" fill-rule="evenodd">
        <g id="Landing" transform="translate(-250.000000, -40.000000)">
            <g id="Logo" transform="translate(250.000000, 40.000000)">
                <path d="M27.194381,41.1729738 C28.3408095,41.715758 29.557,41.982422 30.762,41.982422 C32.5986667,41.9821856 34.4091429,41.3630428 35.9065238,40.1578538 C36.104381,39.9987537 36.3039048,39.827597 36.499619,39.6495846 C37.1684286,39.0408435 37.2136667,38.0091752 36.6008095,37.3451156 C35.9879524,36.681056 34.9489048,36.6363756 34.2798571,37.2444074 C34.1329524,37.3779758 33.984381,37.5053977 33.8377143,37.6233634 C32.3291429,38.8377723 30.374381,39.0642476 28.6079524,38.228322 C26.8112857,37.3779758 25.7386667,35.6954865 25.7386667,33.7274209 L25.7386667,25.0317621 L35.5750952,25.0317621 C36.3691429,25.0317621 37.0124762,24.3927613 37.0124762,23.6045894 C37.0124762,22.8161812 36.3691429,22.1771804 35.5750952,22.1771804 L25.7386667,22.1771804 L25.7386667,19.6523826 C25.7386667,18.7516823 25.0031905,18.0214295 24.0960476,18.0214295 C23.1889048,18.0214295 22.4531905,18.7516823 22.4531905,19.6523826 L22.4531905,22.1771804 L19.7639048,22.1771804 C18.9700952,22.1771804 18.3265238,22.8161812 18.3265238,23.6045894 C18.3265238,24.3927613 18.9700952,25.0317621 19.7639048,25.0317621 L22.4531905,25.0317621 L22.4531905,33.7274209 C22.4531905,36.9361362 24.2698571,39.7890631 27.194381,41.1729738" id="Fill-1" fill="#FFFFFF"></path>
                <path d="M51.938619,34.69552 C52.1067143,33.9191684 51.5052857,33.1870243 50.7052857,33.1870243 L50.3264762,33.1870243 C49.7462381,33.1870243 49.2357619,33.5830015 49.1114762,34.1458801 C47.2443333,42.6103354 39.7795714,49.0705553 30.7926667,49.4334359 C16.9517143,49.992532 6.08671429,36.2042522 12.0790952,21.8512025 C13.8967143,17.4978176 17.4002857,14.0243295 21.7862381,12.2226925 C31.7038571,8.14944666 41.3505238,11.9527188 46.2445714,19.1805433 C46.6212381,19.7365662 47.3750476,19.8930658 47.9464762,19.537041 L48.1693333,19.3982717 C48.8167143,18.9947296 49.0029048,18.1372912 48.573619,17.5094014 C43.1914762,9.6364296 32.8774286,5.34427343 22.0748095,9.05109259 C15.9743333,11.1446889 11.1664762,15.8240753 8.98409524,21.8554578 C3.30528571,37.5512838 14.9398095,52.3043295 29.9795714,52.3043295 C40.743619,52.3043295 49.7621905,44.746721 51.938619,34.69552" id="Fill-3" fill="#FFFFFF"></path>
                <g id="Group-7" transform="translate(0.000000, 0.195979)">
                    <mask id="mask-2" fill="white">
                        <use xlink:href="#path-1"></use>
                    </mask>
                    <g id="Clip-6"></g>
                    <path d="M28.6034286,0.071086768 C13.1874762,0.759496041 0.709857143,13.164338 0.0296190476,28.4715153 C-0.120380952,31.8468957 0.30152381,35.1057288 1.20414286,38.1626725 C1.44866667,38.9910331 2.39461905,39.3955209 3.17961905,39.0250754 C3.18842857,39.0210565 3.19747619,39.0168012 3.20628571,39.0125459 C3.842,38.7130217 4.15795238,38.000972 3.96033333,37.3300567 C3.15938095,34.6106982 2.77509524,31.7166369 2.897,28.716903 C3.46104762,14.8262601 14.7777143,3.53062705 28.7655714,2.92117681 C44.2612857,2.24600617 57.084619,14.5676338 57.084619,29.8071995 C57.084619,44.6467692 44.9253333,56.7194632 29.979619,56.7194632 C27.9710476,56.7194632 26.0134286,56.4998436 24.1284286,56.0858997 C23.619619,55.9743169 23.0922381,56.1669864 22.7689048,56.5724197 C22.1010476,57.4097637 22.5386667,58.663652 23.589381,58.8913093 C25.9886667,59.4113987 28.4941429,59.6459118 31.0684286,59.5544233 C46.6098571,59.0024193 59.264381,46.5380035 59.9312857,31.1109692 C60.6858095,13.6492032 46.1977143,-0.714484666 28.6034286,0.071086768" id="Fill-5" fill="#FFFFFF" mask="url(#mask-2)"></path>
                </g>
            </g>
        </g>
    </g>
</svg>