<?xml version="1.0" encoding="UTF-8"?>
<svg width="60px" height="60px" viewBox="0 0 60 60" version="1.1" xmlns="http://www.w3.org/2000/svg" xmlns:xlink="http://www.w3.org/1999/xlink">
    <!-- Generator: Sketch 44.1 (41455) - http://www.bohemiancoding.com/sketch -->
    <title>Logo Copy 5</title>
    <desc>Created with Sketch.</desc>
    <defs>
        <polygon id="path-1" points="0 59.5333677 0 0 59.9592857 0 59.9592857 59.5333677"></polygon>
    </defs>
    <g id="Page-1" stroke="none" stroke-width="1" fill="none" fill-rule="evenodd" opacity="0.800000012">
        <g id="Landing" transform="translate(-250.000000, -9236.000000)">
            <g id="Logo-Copy-5" transform="translate(250.000000, 9236.000000)">
                <path d="M26.8678571,41.1515443 C28.0142857,41.6943285 29.2304762,41.9609925 30.4354762,41.9609925 C32.2721429,41.9607561 34.082619,41.3416133 35.58,40.1364243 C35.7778571,39.9773242 35.977381,39.8061675 36.1730952,39.6281551 C36.8419048,39.019414 36.8871429,37.9877458 36.2742857,37.3236861 C35.6614286,36.6596265 34.622381,36.6149461 33.9533333,37.2229779 C33.8064286,37.3565463 33.6578571,37.4839682 33.5111905,37.601934 C32.002619,38.8163428 30.0478571,39.0428181 28.2814286,38.2068925 C26.4847619,37.3565463 25.4121429,35.674057 25.4121429,33.7059914 L25.4121429,25.0103326 L35.2485714,25.0103326 C36.042619,25.0103326 36.6859524,24.3713318 36.6859524,23.58316 C36.6859524,22.7947517 36.042619,22.1557509 35.2485714,22.1557509 L25.4121429,22.1557509 L25.4121429,19.6309532 C25.4121429,18.7302528 24.6766667,18 23.7695238,18 C22.862381,18 22.1266667,18.7302528 22.1266667,19.6309532 L22.1266667,22.1557509 L19.437381,22.1557509 C18.6435714,22.1557509 18,22.7947517 18,23.58316 C18,24.3713318 18.6435714,25.0103326 19.437381,25.0103326 L22.1266667,25.0103326 L22.1266667,33.7059914 C22.1266667,36.9147067 23.9433333,39.7676336 26.8678571,41.1515443" id="Fill-1" fill="#FFFFFF"></path>
                <path d="M51.4198775,34.9937974 C51.5879727,34.2174457 50.9865441,33.4853017 50.1865441,33.4853017 L49.8077346,33.4853017 C49.2274965,33.4853017 48.7170203,33.8812789 48.5927346,34.4441575 C46.7255918,42.9086128 39.2608299,49.3688327 30.2739251,49.7317132 C16.4329727,50.2908094 5.56797272,36.5025296 11.5603537,22.1494799 C13.3779727,17.796095 16.8815441,14.3226069 21.2674965,12.5209698 C31.1851156,8.44772403 40.8317822,12.2509961 45.7258299,19.4788207 C46.1024965,20.0348436 46.8563061,20.1913432 47.4277346,19.8353184 L47.6505918,19.696549 C48.2979727,19.2930069 48.4841632,18.4355686 48.0548775,17.8076788 C42.6727346,9.93470698 32.358687,5.64255081 21.556068,9.34936997 C15.4555918,11.4429663 10.6477346,16.1223527 8.46535367,22.1537352 C2.78654415,37.8495612 14.421068,52.6026069 29.4608299,52.6026069 C40.2248775,52.6026069 49.2434489,45.0449983 51.4198775,34.9937974" id="Fill-3" fill="#FFFFFF"></path>
                <g id="Group-7" transform="translate(0.000000, 0.195979)">
                    <mask id="mask-2" fill="white">
                        <use xlink:href="#path-1"></use>
                    </mask>
                    <g id="Clip-6"></g>
                    <path d="M28.6035251,0.0307654793 C13.1875728,0.719174752 0.709953717,13.1240167 0.0297156215,28.4311941 C-0.120284378,31.8065744 0.301620383,35.0654075 1.20423943,38.1223513 C1.44876324,38.9507119 2.39471562,39.3551996 3.17971562,38.9847541 C3.18852515,38.9807352 3.19757276,38.9764799 3.20638229,38.9722247 C3.84209657,38.6727004 4.15804895,37.9606507 3.96042991,37.2897354 C3.15947753,34.5703769 2.77519181,31.6763157 2.89709657,28.6765817 C3.46114419,14.7859388 14.7778109,3.49030576 28.765668,2.88085552 C44.2613823,2.20568489 57.0847156,14.5273125 57.0847156,29.7668783 C57.0847156,44.6064479 44.9254299,56.6791419 29.9797156,56.6791419 C27.9711442,56.6791419 26.0135251,56.4595223 24.1285251,56.0455784 C23.6197156,55.9339956 23.0923347,56.1266651 22.7690013,56.5320984 C22.1011442,57.3694424 22.5387632,58.6233307 23.5894775,58.850988 C25.9887632,59.3710775 28.4942394,59.6055905 31.0685251,59.514102 C46.6099537,58.962098 59.2644775,46.4976822 59.9313823,31.0706479 C60.6859061,13.6088819 46.1978109,-0.754805954 28.6035251,0.0307654793" id="Fill-5" fill="#FFFFFF" mask="url(#mask-2)"></path>
                </g>
            </g>
        </g>
    </g>
</svg>